<?xml version="1.0" encoding="UTF-8" standalone="no"?>
<!-- Created with Inkscape (http://www.inkscape.org/) -->

<svg
   xmlns:dc="http://purl.org/dc/elements/1.1/"
   xmlns:cc="http://creativecommons.org/ns#"
   xmlns:rdf="http://www.w3.org/1999/02/22-rdf-syntax-ns#"
   xmlns:svg="http://www.w3.org/2000/svg"
   xmlns="http://www.w3.org/2000/svg"
   xmlns:sodipodi="http://sodipodi.sourceforge.net/DTD/sodipodi-0.dtd"
   xmlns:inkscape="http://www.inkscape.org/namespaces/inkscape"
   width="210mm"
   height="297mm"
   viewBox="0 0 744.09448819 1052.3622047"
   id="svg2"
   version="1.1"
   inkscape:version="0.91 r13725"
   sodipodi:docname="skull2.svg">
  <defs
     id="defs4" />
  <sodipodi:namedview
     id="base"
     pagecolor="#ffffff"
     bordercolor="#666666"
     borderopacity="1.0"
     inkscape:pageopacity="0.0"
     inkscape:pageshadow="2"
     inkscape:zoom="0.35000001"
     inkscape:cx="259.15255"
     inkscape:cy="236.89442"
     inkscape:document-units="px"
     inkscape:current-layer="layer1"
     showgrid="false"
     inkscape:window-width="1920"
     inkscape:window-height="1053"
     inkscape:window-x="-9"
     inkscape:window-y="-9"
     inkscape:window-maximized="1" />
  <metadata
     id="metadata7">
    <rdf:RDF>
      <cc:Work
         rdf:about="">
        <dc:format>image/svg+xml</dc:format>
        <dc:type
           rdf:resource="http://purl.org/dc/dcmitype/StillImage" />
        <dc:title />
      </cc:Work>
    </rdf:RDF>
  </metadata>
  <g
     inkscape:label="Layer 1"
     inkscape:groupmode="layer"
     id="layer1">
    <path
       style="fill:#000000;fill-rule:evenodd;stroke:none;stroke-width:1px;stroke-linecap:butt;stroke-linejoin:miter;stroke-opacity:1"
       d="m 283.42773,12.742188 c -1.14957,0.07214 -2.61829,0.78856 -4.40429,2.53125 -47.88112,46.71992 -88.67878,65.620648 -106.35938,106.941402 -20.8842,74.44947 41.28288,220.31212 59.64844,252.78125 28.39172,-6.66063 54.6818,-46.34031 59.37695,-77.68554 -23.68099,-34.62329 -85.56687,-120.85086 -87.92187,-171.8418 -1.73798,-37.631243 46.99041,-65.915208 82.01953,-106.8125 1.41665,-1.653961 0.77471,-5.644736 -1.88672,-5.90625 -0.15122,-0.01486 -0.30843,-0.01812 -0.47266,-0.0078 z m 198.28711,8.560546 c -0.16424,-0.01042 -0.32143,-0.007 -0.47265,0.0078 -2.66151,0.260647 -3.30283,4.251827 -1.88672,5.90625 35.01578,40.908704 83.73461,83.484563 81.98437,121.115233 -2.37162,50.99017 -64.28819,122.92154 -87.98046,157.53711 4.68493,31.34677 30.96202,71.03519 59.35156,77.70508 18.37614,-32.46315 80.59236,-164.03006 59.73242,-238.48633 -17.66713,-41.32652 -58.45832,-74.514478 -106.32422,-121.249999 -1.78543,-1.743271 -3.25459,-2.462202 -4.4043,-2.535157 z M 301.02539,302.82812 c -1.78095,53.68127 -38.17952,66.19878 -72.33398,84.84961 0,0 3.49585,41.13617 -24.05664,58.41211 -7.46089,33.45788 -18.00545,55.7264 -14.24415,66.39844 14.96297,42.45462 51.04543,-53.99878 60.24219,-49.49414 17.07404,8.36297 46.49416,10.69758 64.57227,19.68359 15.10963,7.51047 23.57073,32.20882 19.43164,68.30274 -14.01807,49.0799 -87.45324,53.11036 -111.14844,17.66211 -5.68532,-8.50529 1.94072,-36.24421 6.41602,-38.76172 -35.19234,9.94565 -52.41458,67.49331 -27.66211,75.74414 25.15596,6.38527 45.92149,50.63013 57.73828,73.50977 27.66898,-34.7735 25.83366,-41.52976 45.73828,-12.09766 11.61934,17.18102 2.29933,25.70788 -4.92578,39.53125 -10.46362,20.01942 -20.78795,14.25288 -28.34961,5.12695 -2.93527,-4.42699 -3.44833,1.31544 -3.79102,1.12696 9.37325,25.07228 17.25662,61.48284 5.97657,84.13671 -11.61599,23.32855 19.15932,96.434 36.29882,108.56836 4.94753,3.16316 36.86021,31.01571 52.80079,40.64649 7.8297,1.96882 4.8615,-2.56278 3.63671,-5.21289 -14.22814,-21.28821 -37.46121,-61.47246 -34.10546,-76.32227 2.24077,-9.91583 12.87825,-17.51577 23.20117,-27.13086 1.18761,-0.30189 14.25736,-6.07047 17.96484,3.73242 -1.15706,12.96431 0.41227,60.05615 9.64649,67.17969 9.26581,-6.21115 3.72964,-53.28242 1.82421,-66.13867 2.63615,-10.62297 18.85352,-5.85547 18.85352,-5.85547 6.82333,8.16765 27.51931,18.69147 26.05859,34.48633 -0.76066,8.22501 -25.00377,52.01786 -34.57421,71.8457 -2.44084,7.16 4.16796,4.26953 4.16796,4.26953 11.53934,-7.77937 30.17152,-22.72797 35.87891,-26.37695 11.80425,-5.51357 62.29518,-89.21762 43.17383,-110.37695 -20.39107,-22.56438 -2.18677,-59.08466 4.82617,-82.55664 2.2865,-5.95796 -1.68732,-4.95599 -4.53906,-1.26563 -6.52157,8.61965 -29.90063,2.42641 -35.46485,-17.51562 -3.21841,-11.53472 -16.96361,-25.60914 12.98047,-51.9668 13.21444,-11.63174 18.43172,13.02789 34.96094,41.48828 14.3748,-20.53446 40.12272,-74.86542 64.79883,-81.12891 24.75247,-8.25081 21.41109,-63.35903 -13.78125,-73.30468 -1.87895,4.94715 5.85248,27.5808 3.11719,34.82422 0,0 -55.42812,42.86778 -114.41797,-13.72461 -8.93389,-32.20688 -6.7962,-63.88439 1.10547,-75.30274 15.32777,-22.14948 55.08049,-17.58322 75.88281,-25.85156 8.74665,-3.47654 44.01358,89.99433 63.36523,62.22461 -12.45323,-22.07207 -17.09561,-45.06551 -23.50781,-65.54883 -31.09973,-19.17035 -21.89233,-57.50961 -19.94336,-65.2168 -20.25675,9.16041 -69.44615,-60.80442 -66.82617,-84.51757 -17.97921,9.66225 -42.5258,1.32074 -45.08594,2.19336 -21.38949,26.91127 -12.09525,78.91882 -24.48211,80.12821 -12.45665,1.21621 -6.68155,-44.52816 -22.17805,-84.93485 -6.64368,4.04707 -48.80338,1.17338 -69.24023,-5.46876 z m -184.47656,14.64063 c -1.27416,-0.14224 -2.38114,1.34224 -2.26563,5.09766 1.86168,60.51906 68.6047,107.97892 82.80469,115.79687 5.77039,-7.2872 25.41742,-32.98237 15.8457,-56.83398 -25.18585,-9.97084 -80.14594,-26.89284 -93.60156,-61.07813 -0.69907,-1.77606 -1.79219,-2.87179 -2.7832,-2.98242 z m 523.84179,14.28711 c -0.99099,0.11063 -2.08413,1.20441 -2.7832,2.98047 -13.45562,34.18529 -68.41571,51.10924 -93.60156,61.08008 -9.57172,23.85161 10.07336,49.54483 15.84375,56.83203 14.19999,-7.81795 80.94301,-55.27586 82.80469,-115.79492 0.11551,-3.75542 -0.98952,-5.2399 -2.26368,-5.09766 z M 377.79688,617.99609 c -1.3368,63.76051 23.13765,77.44544 15.2246,109.09766 -1.50585,6.02338 -11.77084,38.02736 -15.21484,43.19336 -0.22618,-3.84182 -21.53,-41.67976 -21.75781,-45.63672 -2.1266,-36.93852 14.86201,-23.85338 21.74805,-106.6543 z"
       id="path3373"
       inkscape:connector-curvature="0"
       sodipodi:nodetypes="sscccsssssssscccsscccssscscccssccscccscccccscccsccsscccccsscccccsccssccssssccsscscsc" />
    <rect
       ry="0"
       rx="0"
       y="-1563.9329"
       x="2145.564"
       height="1060.6602"
       width="749.5332"
       id="rect3360"
       style="opacity:1;fill:#ffffff;fill-opacity:1;stroke:none;stroke-width:40;stroke-linecap:round;stroke-linejoin:round;stroke-miterlimit:4;stroke-dasharray:none;stroke-dashoffset:0;stroke-opacity:1" />
    <path
       sodipodi:nodetypes="sscscsccccsscsccccsccssscsssccsccccscsscccs"
       inkscape:connector-curvature="0"
       id="path3362"
       d="m 2598.6069,-1261.0324 c -6.8208,-0.2496 -11.6113,6.4359 -20.0234,7.6465 -14.4315,2.0768 -27.7134,12.4423 -40.8418,16.916 -0.1259,5.9036 0.7123,12.0571 -0.6485,17.5 -6.5651,26.2605 -8.8697,96.9653 -11.4274,128.5723 0.1009,-38.8395 -2.7458,-158.9422 -32.0765,-154.1192 -9.3593,1.5391 -17.6352,-6.9851 -28.8066,-6.9882 -4.2542,-10e-4 -14.4074,-10.037 -18.1934,-9.3829 2.0053,18.7694 -12.7304,59.6197 -34.6875,77.8243 11.1982,61.1443 -32.1729,59.9515 -40.9941,95.2363 -1.2982,27.0527 10.304,38.5489 26.3496,45.4199 17.4772,7.4841 51.4942,-2.1598 69.5723,6.8262 15.1096,7.5105 16.5004,30.1893 12.3613,66.28319 -14.0132,49.07876 -23.605,32.21825 -92.9668,7.56054 -9.6395,-3.42679 -9.1706,-24.12311 -4.6953,-26.64062 -35.1923,9.94565 -25.272,57.49331 -0.5195,65.74414 25.1559,6.38527 42.1557,24.01855 53.9725,46.89819 17.6491,1.19329 33.4163,41.44318 18.3556,54.33618 5.611,25.65983 -4.3557,45.05868 -1.7168,67.5 1.4984,12.74289 22.1389,26.30773 33.3555,48.59571 7.4156,4.74113 15.0753,3.68005 22.2226,6.0625 -1.8453,-8.03123 -11.7422,-21.72652 -12.6601,-31.26367 -1.56,-16.20824 4.5818,-21.16364 9.6289,-30.86133 4.5233,-8.69132 9.399,-24.75472 10.7129,-21.8711 3.0003,6.58504 -9.6451,44.46441 6.8984,57.22657 18.1328,-12.15495 -1.2709,-54.95273 4.9805,-58.26172 2.0854,-1.10386 6.133,16.23531 12.1269,23.41015 6.8233,8.16765 13.2322,12.26374 11.7715,28.0586 -0.9227,9.97677 -9.3392,25.16962 -11.2676,33.5625 7.1474,-2.38245 14.809,-1.32137 22.2246,-6.0625 6.5737,-13.35941 32.57,-36.92508 34.0684,-49.66797 2.6955,-22.92255 -9.0143,-44.42631 -1.8287,-66.97628 -20.4253,-25.88372 10.1958,-58.46667 23.4089,-48.2601 14.3748,-20.53446 33.7437,-37.07045 58.4198,-43.33393 24.7525,-8.25083 44.2685,-54.78873 9.0762,-64.73438 -1.879,4.94715 -7.3453,23.30595 -15.0645,22.70313 -43.7369,-3.41558 -87.2423,66.89263 -96.2363,-1.60352 -8.9339,-32.20688 -6.7962,-63.88438 1.1055,-75.30268 15.3277,-22.1495 52.3459,-3.5879 72.3125,-13.709 17.1896,-8.7135 30.2174,-12.2412 28.8066,-41.6387 -8.8212,-35.2848 -48.3408,-44.5705 -37.1426,-105.7148 -6.3577,3.8146 -39.387,-44.3149 -38.541,-67.3458 -0.4744,-0.082 -0.9379,-0.1278 -1.3926,-0.1445 z"
       style="fill:#000000;fill-rule:evenodd;stroke:none;stroke-width:1px;stroke-linecap:butt;stroke-linejoin:miter;stroke-opacity:1" />
    <path
       sodipodi:nodetypes="cccc"
       inkscape:connector-curvature="0"
       id="path3364"
       d="m 2457.6258,-721.48668 c 5.4934,4.73481 14.0353,22.03776 19.1816,29.90062 -13.04,27.68922 -7.8983,56.76971 -7.8983,85.18859 -16.938,-38.7012 -16.7465,-98.2555 -11.2833,-115.08921 z"
       style="fill:#000000;fill-rule:evenodd;stroke:none;stroke-width:1px;stroke-linecap:butt;stroke-linejoin:miter;stroke-opacity:1" />
    <path
       style="fill:#000000;fill-rule:evenodd;stroke:none;stroke-width:1px;stroke-linecap:butt;stroke-linejoin:miter;stroke-opacity:1"
       d="m 2588.6025,-731.01815 c -5.3218,4.92694 -13.2436,22.52238 -18.1074,30.56307 14.0153,27.20857 9.9098,56.45334 10.9192,84.85429 15.5526,-39.27841 13.2459,-98.78833 7.1882,-115.41736 z"
       id="path3366"
       inkscape:connector-curvature="0"
       sodipodi:nodetypes="cccc" />
    <path
       sodipodi:nodetypes="cccsssc"
       inkscape:connector-curvature="0"
       id="path3368"
       d="m 2614.2748,-1273.0552 c 1.8171,31.6428 10.0934,63.5552 37.7594,72.7772 60.6551,-48.9704 96.0967,-148.0777 65.7008,-241.9992 -13.8388,-42.7609 -31.7047,-70.6632 -39.0543,-119.7692 -1.3509,-9.0253 -7.0507,-0.4169 -7.0441,2.7507 0.082,38.9213 11.0989,79.935 14.8288,117.4212 5.8441,58.7342 -20.4681,121.359 -72.1906,168.8193 z"
       style="fill:#000000;fill-rule:evenodd;stroke:none;stroke-width:1px;stroke-linecap:butt;stroke-linejoin:miter;stroke-opacity:1" />
    <path
       sodipodi:nodetypes="ccscc"
       inkscape:connector-curvature="0"
       id="path3370"
       d="m 2444.2663,-827.27431 c -21.246,19.53195 -57.2661,0.48072 -70.2314,-8.21874 17.7832,6.35462 38.2895,9.13463 50.8058,-8.29316 6.5223,-9.08171 -6.729,-11.98832 6.8897,-24.11136 9.9918,2.30263 25.8515,30.0977 12.5359,40.62326 z"
       style="fill:#000000;fill-rule:evenodd;stroke:none;stroke-width:1px;stroke-linecap:butt;stroke-linejoin:miter;stroke-opacity:1" />
    <path
       style="fill:#000000;fill-rule:evenodd;stroke:none;stroke-width:1px;stroke-linecap:butt;stroke-linejoin:miter;stroke-opacity:1"
       d="m 2599.3434,-826.26416 c 21.246,19.53195 57.2661,0.48072 70.2314,-8.21874 -17.7831,6.35462 -38.2894,9.13463 -50.8057,-8.29316 -6.5223,-9.08171 6.729,-11.98832 -6.8898,-24.11136 -9.9918,2.30263 -25.8514,30.0977 -12.5359,40.62326 z"
       id="path3372"
       inkscape:connector-curvature="0"
       sodipodi:nodetypes="ccscc" />
    <path
       sodipodi:nodetypes="cscsc"
       inkscape:connector-curvature="0"
       id="path3374"
       d="m 2520.5144,-813.42978 c -0.2262,-3.84182 -7.2459,-17.39273 -7.4737,-21.34969 -2.1266,-36.93852 3.4343,-28.13913 10.3203,-110.94005 -1.3368,63.76051 15.9943,77.44426 8.0813,109.09648 -1.5059,6.02338 -7.4839,18.02726 -10.9279,23.19326 z"
       style="fill:#ffffff;fill-rule:evenodd;stroke:#000000;stroke-width:1px;stroke-linecap:butt;stroke-linejoin:miter;stroke-opacity:1" />
    <path
       style="fill:#000000;fill-rule:evenodd;stroke:none;stroke-width:1px;stroke-linecap:butt;stroke-linejoin:miter;stroke-opacity:1"
       d="m 2435.8779,-1269.0146 c -1.8171,31.6428 -10.0935,63.5553 -37.7595,72.7773 -60.655,-48.9705 -96.0966,-148.0778 -65.7007,-241.9993 13.8388,-42.7609 31.7046,-70.6632 39.0543,-119.7691 1.3508,-9.0254 7.0507,-0.417 7.044,2.7506 -0.082,38.9213 -11.0988,79.935 -14.8287,117.4212 -5.8442,58.7342 20.468,121.359 72.1906,168.8193 z"
       id="path3376"
       inkscape:connector-curvature="0"
       sodipodi:nodetypes="cccsssc" />
  </g>
</svg>
